999
DXF file: C:\Users\thoma\Desktop\deck_upper.dxf
999
Pro/ENGINEER 2020281 by Parametric Technology Corporation
  0
SECTION
  2
HEADER
  9
$EXTMAX
 10
500.0
 20
190.0
 30
0.0
  9
$EXTMIN
 10
0.0
 20
0.0
 30
0.0
  9
$LIMMIN
 10
0.0
 20
0.0
  9
$LIMMAX
 10
500.0
 20
190.0
  9
$VIEWCTR
 10
250.0
 20
95.0
  9
$VIEWSIZE
 40
190.0
  9
$CLAYER
  8
0
  9
$LTSCALE
 40
27.5
  9
$CELTYPE
  6
BYLAYER
  9
$DIMSCALE
 40
1.0
  9
$DIMASZ
 40
3.5
  9
$DIMEXO
 40
1.0
  9
$DIMDLI
 40
19.0
  9
$DIMEXE
 40
1.5
  9
$DIMCEN
 40
4.5
  9
$DIMLFAC
 40
1.0
  9
$DIMBLK
  1
_FILLED
  9
$DIMALT
 70
0
  9
$DIMALTF
 40
0.0393700787
  9
$DIMTXT
 40
3.5
  9
$AUNITS
 70
0
  9
$PDMODE
 70
3
  9
$PDSIZE
 40
8.0
  9
$TILEMODE
 70
1
  0
ENDSEC
  0
SECTION
  2
TABLES
  0
TABLE
  2
LTYPE
 70
6
  0
LTYPE
  2
BYBLOCK
 70
0
  3

 72
65
 73
0
 40
0.0
  0
LTYPE
  2
BYLAYER
 70
0
  3

 72
65
 73
0
 40
0.0
  0
LTYPE
  2
CONTINUOUS
 70
64
  3
Solid line
 72
65
 73
0
 40
0.0
  0
LTYPE
  2
CENTER
 70
64
  3
____ _ ____ _ ____ _ ____ _ ____ _ ____ _ ____
 72
65
 73
4
 40
0.6
 49
0.375
 49
-0.075
 49
0.075
 49
-0.075
  0
LTYPE
  2
HIDDEN
 70
64
  3
- - - - - - - - - - - - - - - - - - - -
 72
65
 73
2
 40
0.2
 49
0.1
 49
-0.1
  0
LTYPE
  2
PHANTOM
 70
64
  3
_____ _ _ _____ _ _ _____ _ _ _____
 72
65
 73
6
 40
0.8
 49
0.45
 49
-0.05
 49
0.1
 49
-0.05
 49
0.1
 49
-0.05
  0
LTYPE
  2
DOT
 70
64
  3
. . . . . . . . . . . . . . . . . . . .
 72
65
 73
2
 40
0.2
 49
0.1
 49
-0.1
  0
LTYPE
  2
DASHED
 70
64
  3
- - - - - - - - - - - - - - - - - - - -
 72
65
 73
2
 40
0.2
 49
0.1
 49
-0.1
  0
ENDTAB
  0
TABLE
  2
LAYER
 70
36
  0
LAYER
  2
0
 70
0
 62
7
  6
CONTINUOUS
  0
LAYER
  2
DEFAULT_1
 70
0
 62
7
  6
CENTER
  0
LAYER
  2
DEFAULT_2
 70
0
 62
8
  6
HIDDEN
  0
LAYER
  2
DEFAULT_3
 70
0
 62
7
  6
PHANTOM
  0
LAYER
  2
01___PRT_ALL_DTM_PLN
 70
0
 62
7
  6
CONTINUOUS
  0
LAYER
  2
01___PRT_DEF_DTM_PLN
 70
0
 62
7
  6
CONTINUOUS
  0
LAYER
  2
02___PRT_ALL_AXES
 70
0
 62
7
  6
CONTINUOUS
  0
LAYER
  2
03___PRT_ALL_CURVES
 70
0
 62
7
  6
CONTINUOUS
  0
LAYER
  2
04___PRT_ALL_DTM_PNT
 70
0
 62
7
  6
CONTINUOUS
  0
LAYER
  2
05___PRT_ALL_DTM_CSYS
 70
0
 62
7
  6
CONTINUOUS
  0
LAYER
  2
05___PRT_DEF_DTM_CSYS
 70
0
 62
7
  6
CONTINUOUS
  0
LAYER
  2
06___PRT_ALL_SURFS
 70
0
 62
7
  6
CONTINUOUS
  0
ENDTAB
  0
TABLE
  2
STYLE
 70
1
  0
STYLE
  2
STANDARD
 70
0
 40
0.0
 41
0.85
 50
0.0
 71
0
 42
0.2
  3
txt
  4

  0
STYLE
  2
TEXTSTYLE_1
 70
0
 40
0.0
 41
0.8
 50
0.0
 71
0
 42
0.2
  3
gdt
  4

  0
ENDTAB
  0
ENDSEC
  0
SECTION
  2
BLOCKS
  0
BLOCK
  8
0
  2
_FILLED
 70
64
 10
0.0
 20
0.0
  0
SOLID
  8
0
  6
BYBLOCK
 62
0
 10
0.0
 20
0.0
 11
-1.0
 21
0.2142857143
 12
-1.0
 22
-0.2142857143
 13
-1.0
 23
-0.2142857143
  0
ENDBLK
  8
0
  6
BYBLOCK
 62
0
  0
ENDSEC
  0
SECTION
  2
ENTITIES
  0
LINE
  8
0
 62
7
  6
CONTINUOUS
 10
0.0
 20
0.0
 11
0.0
 21
190.0
  0
LINE
  8
0
 62
7
  6
CONTINUOUS
 10
0.0
 20
0.0
 11
500.0
 21
0.0
  0
LINE
  8
0
 62
7
  6
CONTINUOUS
 10
0.0
 20
190.0
 11
500.0
 21
190.0
  0
LINE
  8
0
 62
7
  6
CONTINUOUS
 10
500.0
 20
0.0
 11
500.0
 21
190.0
  0
LINE
  8
0
 62
7
  6
CONTINUOUS
 10
20.1791858944
 20
175.0267843833
 11
20.1791903337
 21
80.4200557536
  0
LINE
  8
0
 62
7
  6
CONTINUOUS
 10
23.1791905154
 20
76.5470725481
 11
23.1791924627
 21
35.0470725481
  0
LINE
  8
0
 62
7
  6
CONTINUOUS
 10
64.7792446567
 20
31.0470744063
 11
64.7792446567
 21
21.027081398
  0
LINE
  8
0
 62
7
  6
CONTINUOUS
 10
109.1791992968
 20
127.0267885601
 11
109.1791970445
 21
175.0267885595
  0
LINE
  8
0
 62
7
  6
CONTINUOUS
 10
124.1791970445
 20
175.0267892633
 11
124.1791992968
 21
127.0267892639
  0
LINE
  8
0
 62
7
  6
CONTINUOUS
 10
153.1791987807
 20
138.0267906247
 11
153.1791970445
 21
175.0267906241
  0
LINE
  8
0
 62
7
  6
CONTINUOUS
 10
66.7792446567
 20
19.027081398
 11
392.6791932145
 21
19.027081398
  0
LINE
  8
0
 62
7
  6
CONTINUOUS
 10
394.6791932145
 20
22.617445365
 11
473.2328153808
 21
22.617445365
  0
LINE
  8
0
 62
7
  6
CONTINUOUS
 10
25.1791925566
 20
33.047072642
 11
62.7792445629
 21
33.0470744063
  0
LINE
  8
0
 62
7
  6
CONTINUOUS
 10
475.2328153808
 20
37.2234096671
 11
475.1792035103
 21
37.2234096645
  0
LINE
  8
0
 62
7
  6
CONTINUOUS
 10
241.1791989684
 20
134.026794754
 11
241.1791990622
 21
132.026794754
  0
LINE
  8
0
 62
7
  6
CONTINUOUS
 10
251.1791970445
 20
175.0267952226
 11
251.1791990622
 21
132.0267952232
  0
LINE
  8
0
 62
7
  6
CONTINUOUS
 10
122.1791993907
 20
125.0267891701
 11
111.1791993907
 21
125.0267886539
  0
LINE
  8
0
 62
7
  6
CONTINUOUS
 10
249.1791991561
 20
130.0267951294
 11
243.179199156
 21
130.0267948478
  0
LINE
  8
0
 62
7
  6
CONTINUOUS
 10
239.1791988745
 20
136.0267946601
 11
155.1791988745
 21
136.0267907185
  0
LINE
  8
0
 62
7
  6
CONTINUOUS
 10
476.1791969506
 20
177.0268057805
 11
253.1791969506
 21
177.0267953165
  0
LINE
  8
0
 62
7
  6
CONTINUOUS
 10
151.1791969506
 20
177.0267905303
 11
126.1791969506
 21
177.0267893572
  0
LINE
  8
0
 62
7
  6
CONTINUOUS
 10
107.1791969506
 20
177.0267884656
 11
22.1791858005
 21
177.0267844771
  0
LINE
  8
0
 62
7
  6
CONTINUOUS
 10
393.6791932145
 20
20.027081398
 11
393.6791932145
 21
21.617445365
  0
LINE
  8
0
 62
7
  6
CONTINUOUS
 10
475.1792016561
 20
76.7376187382
 11
475.1792035103
 21
37.2234096645
  0
LINE
  8
0
 62
7
  6
CONTINUOUS
 10
475.2328153808
 20
24.617445365
 11
475.2328153808
 21
37.2234096671
  0
LINE
  8
0
 62
7
  6
CONTINUOUS
 10
478.1791970445
 20
175.0268058743
 11
478.1792014748
 21
80.6106022253
  0
CIRCLE
  8
0
 62
7
  6
CONTINUOUS
 10
73.1791862698
 20
167.0267868702
 40
2.7
  0
CIRCLE
  8
0
 62
7
  6
CONTINUOUS
 10
295.1791974199
 20
167.0267972873
 40
2.7
  0
ARC
  8
0
 62
7
  6
CONTINUOUS
 10
62.7792446567
 20
31.0470744063
 40
2.0
 50
0.0
 51
90.0000026885
  0
ARC
  8
0
 62
7
  6
CONTINUOUS
 10
473.2328153808
 20
24.617445365
 40
2.0
 50
270.0
 51
360.0
  0
ARC
  8
0
 62
7
  6
CONTINUOUS
 10
477.1792016561
 20
76.737618832
 40
2.0
 50
104.4775148674
 51
180.0000026885
  0
ARC
  8
0
 62
7
  6
CONTINUOUS
 10
476.1792014748
 20
80.6106021314
 40
2.0
 50
284.4775148674
 51
0.0000026885
  0
ARC
  8
0
 62
7
  6
CONTINUOUS
 10
476.1791970445
 20
175.0268057805
 40
2.0
 50
0.0000026885
 51
90.0000026886
  0
ARC
  8
0
 62
7
  6
CONTINUOUS
 10
253.1791970445
 20
175.0267953165
 40
2.0
 50
90.0000026885
 51
180.0000026885
  0
ARC
  8
0
 62
7
  6
CONTINUOUS
 10
249.1791990622
 20
132.0267951294
 40
2.0
 50
270.0000026887
 51
0.0000026885
  0
ARC
  8
0
 62
7
  6
CONTINUOUS
 10
243.1791990622
 20
132.0267948478
 40
2.0
 50
180.0000026885
 51
270.0000026883
  0
ARC
  8
0
 62
7
  6
CONTINUOUS
 10
239.1791989684
 20
134.0267946601
 40
2.0
 50
0.0000026886
 51
90.0000026886
  0
ARC
  8
0
 62
7
  6
CONTINUOUS
 10
155.1791987807
 20
138.0267907185
 40
2.0
 50
180.0000026886
 51
270.0000026885
  0
ARC
  8
0
 62
7
  6
CONTINUOUS
 10
151.1791970445
 20
175.0267905303
 40
2.0
 50
0.0000026884
 51
90.0000026885
  0
ARC
  8
0
 62
7
  6
CONTINUOUS
 10
126.1791970445
 20
175.0267893572
 40
2.0
 50
90.0000026885
 51
180.0000026885
  0
ARC
  8
0
 62
7
  6
CONTINUOUS
 10
122.1791992968
 20
127.0267891701
 40
2.0
 50
270.0000026886
 51
0.0000026886
  0
ARC
  8
0
 62
7
  6
CONTINUOUS
 10
111.1791992968
 20
127.0267886539
 40
2.0
 50
180.0000026885
 51
270.0000026886
  0
ARC
  8
0
 62
7
  6
CONTINUOUS
 10
107.1791970445
 20
175.0267884656
 40
2.0
 50
0.0000026885
 51
90.0000026885
  0
ARC
  8
0
 62
7
  6
CONTINUOUS
 10
22.1791858944
 20
175.0267844771
 40
2.0
 50
90.0000026885
 51
180.0000026885
  0
ARC
  8
0
 62
7
  6
CONTINUOUS
 10
22.1791903337
 20
80.4200558474
 40
2.0
 50
180.0000026885
 51
255.5224905026
  0
ARC
  8
0
 62
7
  6
CONTINUOUS
 10
21.1791905154
 20
76.5470724543
 40
2.0
 50
0.0000026885
 51
75.5224905026
  0
ARC
  8
0
 62
7
  6
CONTINUOUS
 10
25.1791924627
 20
35.047072642
 40
2.0
 50
180.0000026885
 51
270.0000026885
  0
ARC
  8
0
 62
7
  6
CONTINUOUS
 10
66.7792446567
 20
21.027081398
 40
2.0
 50
180.0
 51
270.0
  0
CIRCLE
  8
0
 62
7
  6
CONTINUOUS
 10
436.7327818124
 20
166.6473876494
 40
1.7
  0
ARC
  8
0
 62
7
  6
CONTINUOUS
 10
394.6791932145
 20
21.617445365
 40
1.0
 50
90.0
 51
180.0
  0
ARC
  8
0
 62
7
  6
CONTINUOUS
 10
392.6791932145
 20
20.027081398
 40
1.0
 50
270.0
 51
360.0
  0
ENDSEC
  0
EOF
