999
DXF file: C:\Users\thoma\Desktop\deck_upper.dxf
999
Pro/ENGINEER 2020281 by Parametric Technology Corporation
  0
SECTION
  2
HEADER
  9
$EXTMAX
 10
420.0
 20
297.0
 30
0.0
  9
$EXTMIN
 10
0.0
 20
0.0
 30
0.0
  9
$LIMMIN
 10
0.0
 20
0.0
  9
$LIMMAX
 10
420.0
 20
297.0
  9
$VIEWCTR
 10
210.0
 20
148.5
  9
$VIEWSIZE
 40
297.0
  9
$CLAYER
  8
0
  9
$LTSCALE
 40
23.1
  9
$CELTYPE
  6
BYLAYER
  9
$DIMSCALE
 40
1.0
  9
$DIMASZ
 40
3.5
  9
$DIMEXO
 40
1.0
  9
$DIMDLI
 40
15.96
  9
$DIMEXE
 40
1.5
  9
$DIMCEN
 40
3.78
  9
$DIMLFAC
 40
1.0
  9
$DIMBLK
  1
_FILLED
  9
$DIMALT
 70
0
  9
$DIMALTF
 40
0.0393700787
  9
$DIMTXT
 40
3.5
  9
$AUNITS
 70
0
  9
$PDMODE
 70
3
  9
$PDSIZE
 40
8.0
  9
$TILEMODE
 70
1
  0
ENDSEC
  0
SECTION
  2
TABLES
  0
TABLE
  2
LTYPE
 70
6
  0
LTYPE
  2
BYBLOCK
 70
0
  3

 72
65
 73
0
 40
0.0
  0
LTYPE
  2
BYLAYER
 70
0
  3

 72
65
 73
0
 40
0.0
  0
LTYPE
  2
CONTINUOUS
 70
64
  3
Solid line
 72
65
 73
0
 40
0.0
  0
LTYPE
  2
CENTER
 70
64
  3
____ _ ____ _ ____ _ ____ _ ____ _ ____ _ ____
 72
65
 73
4
 40
0.6
 49
0.375
 49
-0.075
 49
0.075
 49
-0.075
  0
LTYPE
  2
HIDDEN
 70
64
  3
- - - - - - - - - - - - - - - - - - - -
 72
65
 73
2
 40
0.2
 49
0.1
 49
-0.1
  0
LTYPE
  2
PHANTOM
 70
64
  3
_____ _ _ _____ _ _ _____ _ _ _____
 72
65
 73
6
 40
0.8
 49
0.45
 49
-0.05
 49
0.1
 49
-0.05
 49
0.1
 49
-0.05
  0
LTYPE
  2
DOT
 70
64
  3
. . . . . . . . . . . . . . . . . . . .
 72
65
 73
2
 40
0.2
 49
0.1
 49
-0.1
  0
LTYPE
  2
DASHED
 70
64
  3
- - - - - - - - - - - - - - - - - - - -
 72
65
 73
2
 40
0.2
 49
0.1
 49
-0.1
  0
ENDTAB
  0
TABLE
  2
LAYER
 70
36
  0
LAYER
  2
0
 70
0
 62
7
  6
CONTINUOUS
  0
LAYER
  2
DEFAULT_1
 70
0
 62
7
  6
CENTER
  0
LAYER
  2
DEFAULT_2
 70
0
 62
8
  6
HIDDEN
  0
LAYER
  2
DEFAULT_3
 70
0
 62
7
  6
PHANTOM
  0
LAYER
  2
01___PRT_ALL_DTM_PLN
 70
0
 62
7
  6
CONTINUOUS
  0
LAYER
  2
01___PRT_DEF_DTM_PLN
 70
0
 62
7
  6
CONTINUOUS
  0
LAYER
  2
02___PRT_ALL_AXES
 70
0
 62
7
  6
CONTINUOUS
  0
LAYER
  2
03___PRT_ALL_CURVES
 70
0
 62
7
  6
CONTINUOUS
  0
LAYER
  2
04___PRT_ALL_DTM_PNT
 70
0
 62
7
  6
CONTINUOUS
  0
LAYER
  2
05___PRT_ALL_DTM_CSYS
 70
0
 62
7
  6
CONTINUOUS
  0
LAYER
  2
05___PRT_DEF_DTM_CSYS
 70
0
 62
7
  6
CONTINUOUS
  0
LAYER
  2
06___PRT_ALL_SURFS
 70
0
 62
7
  6
CONTINUOUS
  0
ENDTAB
  0
TABLE
  2
STYLE
 70
1
  0
STYLE
  2
STANDARD
 70
0
 40
0.0
 41
0.85
 50
0.0
 71
0
 42
0.2
  3
txt
  4

  0
STYLE
  2
TEXTSTYLE_1
 70
0
 40
0.0
 41
0.8
 50
0.0
 71
0
 42
0.2
  3
gdt
  4

  0
ENDTAB
  0
ENDSEC
  0
SECTION
  2
BLOCKS
  0
BLOCK
  8
0
  2
_FILLED
 70
64
 10
0.0
 20
0.0
  0
SOLID
  8
0
  6
BYBLOCK
 62
0
 10
0.0
 20
0.0
 11
-1.0
 21
0.2142857143
 12
-1.0
 22
-0.2142857143
 13
-1.0
 23
-0.2142857143
  0
ENDBLK
  8
0
  6
BYBLOCK
 62
0
  0
ENDSEC
  0
SECTION
  2
ENTITIES
  0
LINE
  8
0
 62
7
  6
CONTINUOUS
 10
-127.5685561773
 20
237.2466803755
 11
-127.568551738
 21
142.6399517458
  0
LINE
  8
0
 62
7
  6
CONTINUOUS
 10
-124.5685515563
 20
138.7669685404
 11
-124.568549609
 21
97.2669685404
  0
LINE
  8
0
 62
7
  6
CONTINUOUS
 10
-82.968497415
 20
93.2669703986
 11
-82.968497415
 21
83.2469773903
  0
LINE
  8
0
 62
7
  6
CONTINUOUS
 10
-38.5685427749
 20
189.2466845523
 11
-38.5685450272
 21
237.2466845517
  0
LINE
  8
0
 62
7
  6
CONTINUOUS
 10
-23.5685450272
 20
237.2466852556
 11
-23.5685427749
 21
189.2466852562
  0
LINE
  8
0
 62
7
  6
CONTINUOUS
 10
5.431456709
 20
200.2466866169
 11
5.4314549728
 21
237.2466866164
  0
LINE
  8
0
 62
7
  6
CONTINUOUS
 10
-80.968497415
 20
81.2469773903
 11
244.9314511428
 21
81.2469773903
  0
LINE
  8
0
 62
7
  6
CONTINUOUS
 10
246.9314511428
 20
84.8373413573
 11
325.4850733091
 21
84.8373413573
  0
LINE
  8
0
 62
7
  6
CONTINUOUS
 10
-122.5685495151
 20
95.2669686343
 11
-84.9684975088
 21
95.2669703986
  0
LINE
  8
0
 62
7
  6
CONTINUOUS
 10
327.4850733091
 20
99.4433056593
 11
327.4314614385
 21
99.4433056568
  0
LINE
  8
0
 62
7
  6
CONTINUOUS
 10
93.4314568966
 20
196.2466907462
 11
93.4314569905
 21
194.2466907462
  0
LINE
  8
0
 62
7
  6
CONTINUOUS
 10
103.4314549728
 20
237.2466912149
 11
103.4314569905
 21
194.2466912155
  0
LINE
  8
0
 62
7
  6
CONTINUOUS
 10
-25.568542681
 20
187.2466851623
 11
-36.568542681
 21
187.2466846462
  0
LINE
  8
0
 62
7
  6
CONTINUOUS
 10
101.4314570843
 20
192.2466911216
 11
95.4314570843
 21
192.2466908401
  0
LINE
  8
0
 62
7
  6
CONTINUOUS
 10
91.4314568028
 20
198.2466906524
 11
7.4314568028
 21
198.2466867108
  0
LINE
  8
0
 62
7
  6
CONTINUOUS
 10
328.4314548789
 20
239.2467017727
 11
105.4314548789
 21
239.2466913088
  0
LINE
  8
0
 62
7
  6
CONTINUOUS
 10
3.4314548789
 20
239.2466865225
 11
-21.5685451211
 21
239.2466853494
  0
LINE
  8
0
 62
7
  6
CONTINUOUS
 10
-40.5685451211
 20
239.2466844579
 11
-125.5685562712
 21
239.2466804694
  0
LINE
  8
0
 62
7
  6
CONTINUOUS
 10
245.9314511428
 20
82.2469773903
 11
245.9314511428
 21
83.8373413573
  0
LINE
  8
0
 62
7
  6
CONTINUOUS
 10
327.4314595844
 20
138.9575147304
 11
327.4314614385
 21
99.4433056568
  0
LINE
  8
0
 62
7
  6
CONTINUOUS
 10
327.4850733091
 20
86.8373413573
 11
327.4850733091
 21
99.4433056593
  0
LINE
  8
0
 62
7
  6
CONTINUOUS
 10
330.4314549728
 20
237.2467018666
 11
330.4314594031
 21
142.8304982175
  0
CIRCLE
  8
0
 62
7
  6
CONTINUOUS
 10
-74.5685558019
 20
229.2466828625
 40
2.7
  0
CIRCLE
  8
0
 62
7
  6
CONTINUOUS
 10
147.4314553482
 20
229.2466932796
 40
2.7
  0
ARC
  8
0
 62
7
  6
CONTINUOUS
 10
-84.968497415
 20
93.2669703986
 40
2.0
 50
0.0
 51
90.0000026885
  0
ARC
  8
0
 62
7
  6
CONTINUOUS
 10
325.4850733091
 20
86.8373413573
 40
2.0
 50
270.0
 51
360.0
  0
ARC
  8
0
 62
7
  6
CONTINUOUS
 10
329.4314595844
 20
138.9575148243
 40
2.0
 50
104.4775148674
 51
180.0000026885
  0
ARC
  8
0
 62
7
  6
CONTINUOUS
 10
328.4314594031
 20
142.8304981237
 40
2.0
 50
284.4775148674
 51
0.0000026885
  0
ARC
  8
0
 62
7
  6
CONTINUOUS
 10
328.4314549728
 20
237.2467017727
 40
2.0
 50
0.0000026885
 51
90.0000026886
  0
ARC
  8
0
 62
7
  6
CONTINUOUS
 10
105.4314549728
 20
237.2466913088
 40
2.0
 50
90.0000026885
 51
180.0000026885
  0
ARC
  8
0
 62
7
  6
CONTINUOUS
 10
101.4314569905
 20
194.2466911216
 40
2.0
 50
270.0000026887
 51
0.0000026885
  0
ARC
  8
0
 62
7
  6
CONTINUOUS
 10
95.4314569905
 20
194.2466908401
 40
2.0
 50
180.0000026885
 51
270.0000026883
  0
ARC
  8
0
 62
7
  6
CONTINUOUS
 10
91.4314568966
 20
196.2466906524
 40
2.0
 50
0.0000026886
 51
90.0000026886
  0
ARC
  8
0
 62
7
  6
CONTINUOUS
 10
7.431456709
 20
200.2466867108
 40
2.0
 50
180.0000026886
 51
270.0000026885
  0
ARC
  8
0
 62
7
  6
CONTINUOUS
 10
3.4314549728
 20
237.2466865225
 40
2.0
 50
0.0000026884
 51
90.0000026885
  0
ARC
  8
0
 62
7
  6
CONTINUOUS
 10
-21.5685450272
 20
237.2466853494
 40
2.0
 50
90.0000026885
 51
180.0000026885
  0
ARC
  8
0
 62
7
  6
CONTINUOUS
 10
-25.5685427749
 20
189.2466851623
 40
2.0
 50
270.0000026886
 51
0.0000026886
  0
ARC
  8
0
 62
7
  6
CONTINUOUS
 10
-36.5685427749
 20
189.2466846462
 40
2.0
 50
180.0000026885
 51
270.0000026886
  0
ARC
  8
0
 62
7
  6
CONTINUOUS
 10
-40.5685450272
 20
237.2466844579
 40
2.0
 50
0.0000026885
 51
90.0000026885
  0
ARC
  8
0
 62
7
  6
CONTINUOUS
 10
-125.5685561773
 20
237.2466804694
 40
2.0
 50
90.0000026885
 51
180.0000026885
  0
ARC
  8
0
 62
7
  6
CONTINUOUS
 10
-125.568551738
 20
142.6399518397
 40
2.0
 50
180.0000026885
 51
255.5224905026
  0
ARC
  8
0
 62
7
  6
CONTINUOUS
 10
-126.5685515563
 20
138.7669684466
 40
2.0
 50
0.0000026885
 51
75.5224905026
  0
ARC
  8
0
 62
7
  6
CONTINUOUS
 10
-122.568549609
 20
97.2669686343
 40
2.0
 50
180.0000026885
 51
270.0000026885
  0
ARC
  8
0
 62
7
  6
CONTINUOUS
 10
-80.968497415
 20
83.2469773903
 40
2.0
 50
180.0
 51
270.0
  0
CIRCLE
  8
0
 62
7
  6
CONTINUOUS
 10
288.9850397407
 20
228.8672836416
 40
1.7
  0
ARC
  8
0
 62
7
  6
CONTINUOUS
 10
246.9314511428
 20
83.8373413573
 40
1.0
 50
90.0
 51
180.0
  0
ARC
  8
0
 62
7
  6
CONTINUOUS
 10
244.9314511428
 20
82.2469773903
 40
1.0
 50
270.0
 51
360.0
  0
ENDSEC
  0
EOF
