0
SECTION
2
HEADER
9
$INSUNITS
70
4
9
$ACADVER
1
AC1014
9
$HANDSEED
5
FFFF
0
ENDSEC
0
SECTION
2
TABLES
0
TABLE
2
VPORT
5
8
100
AcDbSymbolTable
0
ENDTAB
0
TABLE
2
LTYPE
5
5
100
AcDbSymbolTable
0
LTYPE
5
14
100
AcDbSymbolTableRecord
100
AcDbLinetypeTableRecord
2
BYBLOCK
70
0
0
LTYPE
5
15
100
AcDbSymbolTableRecord
100
AcDbLinetypeTableRecord
2
BYLAYER
70
0
0
ENDTAB
0
TABLE
2
LAYER
5
2
100
AcDbSymbolTable
70
2
0
LAYER
5
50
100
AcDbSymbolTableRecord
100
AcDbLayerTableRecord
2
0
70
0
6
CONTINUOUS
0
ENDTAB
0
TABLE
2
STYLE
5
3
100
AcDbSymbolTable
70
1
0
STYLE
5
11
100
AcDbSymbolTableRecord
100
AcDbTextStyleTableRecord
2
STANDARD
70
0
0
ENDTAB
0
TABLE
2
VIEW
5
6
100
AcDbSymbolTable
70
0
0
ENDTAB
0
TABLE
2
UCS
5
7
100
AcDbSymbolTable
70
0
0
ENDTAB
0
TABLE
2
APPID
5
9
100
AcDbSymbolTable
70
2
0
APPID
5
12
100
AcDbSymbolTableRecord
100
AcDbRegAppTableRecord
2
ACAD
70
0
0
ENDTAB
0
TABLE
2
DIMSTYLE
5
A
100
AcDbSymbolTable
70
1
0
ENDTAB
0
TABLE
2
BLOCK_RECORD
5
1
100
AcDbSymbolTable
70
1
0
BLOCK_RECORD
5
1F
100
AcDbSymbolTableRecord
100
AcDbBlockTableRecord
2
*MODEL_SPACE
0
BLOCK_RECORD
5
1B
100
AcDbSymbolTableRecord
100
AcDbBlockTableRecord
2
*PAPER_SPACE
0
ENDTAB
0
ENDSEC
0
SECTION
2
BLOCKS
0
BLOCK
5
20
100
AcDbEntity
100
AcDbBlockBegin
2
*MODEL_SPACE
0
ENDBLK
5
21
100
AcDbEntity
100
AcDbBlockEnd
0
BLOCK
5
1C
100
AcDbEntity
100
AcDbBlockBegin
2
*PAPER_SPACE
0
ENDBLK
5
1D
100
AcDbEntity
100
AcDbBlockEnd
0
ENDSEC
0
SECTION
2
ENTITIES
0
LWPOLYLINE
5
100
100
AcDbEntity
8
0
100
AcDbPolyline
90
44
70
1
43
0.0
10
23.179190515400002
20
76.547072548100004
10
23.179192462700009
20
35.047072548100004
42
0.41421356236523943
10
25.179192556546358
20
33.047072642000003
10
62.779244562853656
20
33.047074406300005
42
-0.41421357611657528
10
64.779244656700016
20
31.047074406300005
10
64.779244656700001
20
21.027081398000004
42
0.41421356237309503
10
66.779244656700001
20
19.027081398
10
392.67919321449995
20
19.027081398
42
0.41421356237309503
10
393.67919321449995
20
20.027081398
10
393.67919321449995
20
21.617445365000002
42
-0.41421356237309503
10
394.67919321449995
20
22.617445364999998
10
473.23281538080005
20
22.617445364999998
42
0.41421356237309503
10
475.23281538079999
20
24.617445364999998
10
475.23281538079999
20
37.2234096671
10
475.1792035103
20
37.223409664499997
10
475.17920165610008
20
76.737618738199998
42
-0.34199871314743158
10
476.67920156547029
20
78.674110481707245
42
0.34199871315541752
10
478.1792014748001
20
80.610602225300013
10
478.17919704450003
20
175.02680587434637
42
0.4142135623736049
10
476.17919695065018
20
177.02680578050001
10
253.17919695060002
20
177.02679531650003
42
0.41421356237310025
10
251.17919704450003
20
175.02679522259999
10
251.17919906220004
20
132.0267952232
42
-0.41421356235845425
10
249.1791991561
20
130.0267951294
10
243.17919915600001
20
130.02679484780001
42
-0.41421356237309503
10
241.17919906220004
20
132.02679475400001
10
241.17919896840004
20
134.02679475394984
42
0.41421356237309243
10
239.1791988745502
20
136.02679466009999
10
155.1791988745
20
136.02679071850002
42
-0.41421356237309243
10
153.17919878070001
20
138.0267906247
10
153.1791970445
20
175.02679062414288
42
0.4142135623736049
10
151.17919695065365
20
177.02679053029999
10
126.17919695065368
20
177.02678935720002
42
0.41421356237309503
10
124.17919704450003
20
175.02678926335366
10
124.17919929679999
20
127.0267892639
42
-0.41421356235844908
10
122.17919939070001
20
125.02678917010002
10
111.17919939069999
20
125.02678865390001
42
-0.41421356238773838
10
109.17919929680002
20
127.02678856010002
10
109.17919704450001
20
175.02678855944637
42
0.41421356237309503
10
107.17919695065368
20
177.02678846560002
10
22.179185800500001
20
177.02678447709999
42
0.41421356235844387
10
20.179185894400003
20
175.02678438330005
10
20.179190333699999
20
80.420055753599996
42
0.34199871312626329
10
21.679190424572717
20
78.483564150855216
42
-0.34199871312048613
0
CIRCLE
5
101
100
AcDbEntity
8
0
100
AcDbCircle
10
436.73278181239999
20
166.6473876494
30
0
40
1.7000000000000002
210
0
220
0
230
1
0
CIRCLE
5
102
100
AcDbEntity
8
0
100
AcDbCircle
10
73.179186269799999
20
167.0267868702
30
0
40
2.7000000000000002
210
0
220
0
230
1
0
CIRCLE
5
103
100
AcDbEntity
8
0
100
AcDbCircle
10
295.17919741989999
20
167.02679728730001
30
0
40
2.7000000000000002
210
0
220
0
230
1
0
ENDSEC
0
SECTION
2
OBJECTS
0
DICTIONARY
5
C
100
AcDbDictionary
3
ACAD_GROUP
350
D
3
ACAD_MLINESTYLE
350
17
0
DICTIONARY
5
D
100
AcDbDictionary
0
DICTIONARY
5
1A
330
C
100
AcDbDictionary
0
DICTIONARY
5
17
100
AcDbDictionary
0
ENDSEC
0
EOF
