999
DXF file: C:\Users\thoma\Desktop\rear_panel.dxf
999
Pro/ENGINEER 2020281 by Parametric Technology Corporation
  0
SECTION
  2
HEADER
  9
$EXTMAX
 10
400.0
 20
450.0
 30
0.0
  9
$EXTMIN
 10
0.0
 20
0.0
 30
0.0
  9
$LIMMIN
 10
0.0
 20
0.0
  9
$LIMMAX
 10
400.0
 20
450.0
  9
$VIEWCTR
 10
200.0
 20
225.0
  9
$VIEWSIZE
 40
450.0
  9
$CLAYER
  8
0
  9
$LTSCALE
 40
29.3333333333
  9
$CELTYPE
  6
BYLAYER
  9
$DIMSCALE
 40
1.0
  9
$DIMASZ
 40
3.5
  9
$DIMEXO
 40
1.0
  9
$DIMDLI
 40
20.2666666667
  9
$DIMEXE
 40
1.5
  9
$DIMCEN
 40
4.8
  9
$DIMLFAC
 40
1.0
  9
$DIMBLK
  1
_FILLED
  9
$DIMALT
 70
0
  9
$DIMALTF
 40
0.0393700787
  9
$DIMTXT
 40
3.5
  9
$AUNITS
 70
0
  9
$PDMODE
 70
3
  9
$PDSIZE
 40
8.0
  9
$TILEMODE
 70
1
  0
ENDSEC
  0
SECTION
  2
TABLES
  0
TABLE
  2
LTYPE
 70
6
  0
LTYPE
  2
BYBLOCK
 70
0
  3

 72
65
 73
0
 40
0.0
  0
LTYPE
  2
BYLAYER
 70
0
  3

 72
65
 73
0
 40
0.0
  0
LTYPE
  2
CONTINUOUS
 70
64
  3
Solid line
 72
65
 73
0
 40
0.0
  0
LTYPE
  2
CENTER
 70
64
  3
____ _ ____ _ ____ _ ____ _ ____ _ ____ _ ____
 72
65
 73
4
 40
0.6
 49
0.375
 49
-0.075
 49
0.075
 49
-0.075
  0
LTYPE
  2
HIDDEN
 70
64
  3
- - - - - - - - - - - - - - - - - - - -
 72
65
 73
2
 40
0.2
 49
0.1
 49
-0.1
  0
LTYPE
  2
PHANTOM
 70
64
  3
_____ _ _ _____ _ _ _____ _ _ _____
 72
65
 73
6
 40
0.8
 49
0.45
 49
-0.05
 49
0.1
 49
-0.05
 49
0.1
 49
-0.05
  0
LTYPE
  2
DOT
 70
64
  3
. . . . . . . . . . . . . . . . . . . .
 72
65
 73
2
 40
0.2
 49
0.1
 49
-0.1
  0
LTYPE
  2
DASHED
 70
64
  3
- - - - - - - - - - - - - - - - - - - -
 72
65
 73
2
 40
0.2
 49
0.1
 49
-0.1
  0
ENDTAB
  0
TABLE
  2
LAYER
 70
36
  0
LAYER
  2
0
 70
0
 62
7
  6
CONTINUOUS
  0
LAYER
  2
DEFAULT_1
 70
0
 62
7
  6
CENTER
  0
LAYER
  2
DEFAULT_2
 70
0
 62
8
  6
HIDDEN
  0
LAYER
  2
DEFAULT_3
 70
0
 62
7
  6
PHANTOM
  0
LAYER
  2
01___PRT_ALL_DTM_PLN
 70
0
 62
7
  6
CONTINUOUS
  0
LAYER
  2
01___PRT_DEF_DTM_PLN
 70
0
 62
7
  6
CONTINUOUS
  0
LAYER
  2
02___PRT_ALL_AXES
 70
0
 62
7
  6
CONTINUOUS
  0
LAYER
  2
03___PRT_ALL_CURVES
 70
0
 62
7
  6
CONTINUOUS
  0
LAYER
  2
04___PRT_ALL_DTM_PNT
 70
0
 62
7
  6
CONTINUOUS
  0
LAYER
  2
05___PRT_ALL_DTM_CSYS
 70
0
 62
7
  6
CONTINUOUS
  0
LAYER
  2
05___PRT_DEF_DTM_CSYS
 70
0
 62
7
  6
CONTINUOUS
  0
LAYER
  2
06___PRT_ALL_SURFS
 70
0
 62
7
  6
CONTINUOUS
  0
ENDTAB
  0
TABLE
  2
STYLE
 70
1
  0
STYLE
  2
STANDARD
 70
0
 40
0.0
 41
0.85
 50
0.0
 71
0
 42
0.2
  3
txt
  4

  0
STYLE
  2
TEXTSTYLE_1
 70
0
 40
0.0
 41
0.8
 50
0.0
 71
0
 42
0.2
  3
gdt
  4

  0
ENDTAB
  0
ENDSEC
  0
SECTION
  2
BLOCKS
  0
BLOCK
  8
0
  2
_FILLED
 70
64
 10
0.0
 20
0.0
  0
SOLID
  8
0
  6
BYBLOCK
 62
0
 10
0.0
 20
0.0
 11
-1.0
 21
0.2142857143
 12
-1.0
 22
-0.2142857143
 13
-1.0
 23
-0.2142857143
  0
ENDBLK
  8
0
  6
BYBLOCK
 62
0
  0
ENDSEC
  0
SECTION
  2
ENTITIES
  0
LINE
  8
0
 62
7
  6
CONTINUOUS
 10
364.7251635462
 20
16.4205929109
 11
38.7251635462
 21
16.4205929109
  0
LINE
  8
0
 62
7
  6
CONTINUOUS
 10
33.7251635462
 20
372.4205862352
 11
33.7251635462
 21
352.4205862352
  0
LINE
  8
0
 62
7
  6
CONTINUOUS
 10
33.7251635462
 20
222.420586712
 11
33.7251635462
 21
202.420586712
  0
LINE
  8
0
 62
7
  6
CONTINUOUS
 10
33.7251635462
 20
72.4205862352
 11
33.7251635462
 21
52.4205862352
  0
LINE
  8
0
 62
7
  6
CONTINUOUS
 10
36.7251635462
 20
18.4205929109
 11
36.7251635462
 21
52.4205862352
  0
LINE
  8
0
 62
7
  6
CONTINUOUS
 10
36.7251635462
 20
72.4205862352
 11
36.7251635462
 21
202.420586712
  0
LINE
  8
0
 62
7
  6
CONTINUOUS
 10
36.7251635462
 20
222.420586712
 11
36.7251635462
 21
352.4205862352
  0
LINE
  8
0
 62
7
  6
CONTINUOUS
 10
36.7251635462
 20
372.4205862352
 11
36.7251635462
 21
430.420586712
  0
LINE
  8
0
 62
7
  6
CONTINUOUS
 10
369.7251635462
 20
52.4205862352
 11
366.7251635462
 21
52.4205862352
  0
LINE
  8
0
 62
7
  6
CONTINUOUS
 10
33.7251635462
 20
52.4205862352
 11
36.7251635462
 21
52.4205862352
  0
LINE
  8
0
 62
7
  6
CONTINUOUS
 10
36.7251635462
 20
72.4205862352
 11
33.7251635462
 21
72.4205862352
  0
LINE
  8
0
 62
7
  6
CONTINUOUS
 10
366.7251635462
 20
72.4205862352
 11
369.7251635462
 21
72.4205862352
  0
LINE
  8
0
 62
7
  6
CONTINUOUS
 10
130.7251635462
 20
432.420586712
 11
130.7251635462
 21
435.420586712
  0
LINE
  8
0
 62
7
  6
CONTINUOUS
 10
150.7251635462
 20
435.420586712
 11
150.7251635462
 21
432.420586712
  0
LINE
  8
0
 62
7
  6
CONTINUOUS
 10
369.7251635462
 20
202.420586712
 11
366.7251635462
 21
202.420586712
  0
LINE
  8
0
 62
7
  6
CONTINUOUS
 10
33.7251635462
 20
202.420586712
 11
36.7251635462
 21
202.420586712
  0
LINE
  8
0
 62
7
  6
CONTINUOUS
 10
36.7251635462
 20
222.420586712
 11
33.7251635462
 21
222.420586712
  0
LINE
  8
0
 62
7
  6
CONTINUOUS
 10
366.7251635462
 20
222.420586712
 11
369.7251635462
 21
222.420586712
  0
LINE
  8
0
 62
7
  6
CONTINUOUS
 10
252.7251635462
 20
432.420586712
 11
252.7251635462
 21
435.420586712
  0
LINE
  8
0
 62
7
  6
CONTINUOUS
 10
272.7251635462
 20
435.420586712
 11
272.7251635462
 21
432.420586712
  0
LINE
  8
0
 62
7
  6
CONTINUOUS
 10
369.7251635462
 20
352.4205862352
 11
366.7251635462
 21
352.4205862352
  0
LINE
  8
0
 62
7
  6
CONTINUOUS
 10
33.7251635462
 20
352.4205862352
 11
36.7251635462
 21
352.4205862352
  0
LINE
  8
0
 62
7
  6
CONTINUOUS
 10
36.7251635462
 20
372.4205862352
 11
33.7251635462
 21
372.4205862352
  0
LINE
  8
0
 62
7
  6
CONTINUOUS
 10
366.7251635462
 20
372.4205862352
 11
369.7251635462
 21
372.4205862352
  0
LINE
  8
0
 62
7
  6
CONTINUOUS
 10
366.7251635462
 20
430.420586712
 11
366.7251635462
 21
372.4205862352
  0
LINE
  8
0
 62
7
  6
CONTINUOUS
 10
366.7251635462
 20
352.4205862352
 11
366.7251635462
 21
222.420586712
  0
LINE
  8
0
 62
7
  6
CONTINUOUS
 10
366.7251635462
 20
202.420586712
 11
366.7251635462
 21
72.4205862352
  0
LINE
  8
0
 62
7
  6
CONTINUOUS
 10
366.7251635462
 20
52.4205862352
 11
366.7251635462
 21
18.4205929109
  0
LINE
  8
0
 62
7
  6
CONTINUOUS
 10
369.7251635462
 20
372.4205862352
 11
369.7251635462
 21
352.4205862352
  0
LINE
  8
0
 62
7
  6
CONTINUOUS
 10
369.7251635462
 20
222.420586712
 11
369.7251635462
 21
202.420586712
  0
LINE
  8
0
 62
7
  6
CONTINUOUS
 10
369.7251635462
 20
72.4205862352
 11
369.7251635462
 21
52.4205862352
  0
LINE
  8
0
 62
7
  6
CONTINUOUS
 10
38.7251635462
 20
432.420586712
 11
130.7251635462
 21
432.420586712
  0
LINE
  8
0
 62
7
  6
CONTINUOUS
 10
150.7251635462
 20
432.420586712
 11
252.7251635462
 21
432.420586712
  0
LINE
  8
0
 62
7
  6
CONTINUOUS
 10
272.7251635462
 20
432.420586712
 11
364.7251635462
 21
432.420586712
  0
LINE
  8
0
 62
7
  6
CONTINUOUS
 10
130.7251635462
 20
435.420586712
 11
150.7251635462
 21
435.420586712
  0
LINE
  8
0
 62
7
  6
CONTINUOUS
 10
252.7251635462
 20
435.420586712
 11
272.7251635462
 21
435.420586712
  0
ARC
  8
0
 62
7
  6
CONTINUOUS
 10
38.7251635462
 20
18.4205929109
 40
2.0
 50
180.0
 51
270.0
  0
ARC
  8
0
 62
7
  6
CONTINUOUS
 10
38.7251635462
 20
430.420586712
 40
2.0
 50
90.0
 51
179.9999999998
  0
ARC
  8
0
 62
7
  6
CONTINUOUS
 10
364.7251635462
 20
430.420586712
 40
2.0
 50
0.0000000001
 51
90.0000000001
  0
ARC
  8
0
 62
7
  6
CONTINUOUS
 10
364.7251635462
 20
18.4205929109
 40
2.0
 50
270.0
 51
360.0
  0
ENDSEC
  0
EOF
